<?xml version="1.0" encoding="UTF-8" standalone="no"?>
<svg
   version="1.0"
   width="1931.762pt"
   height="2307.947pt"
   viewBox="0 0 1931.762 2307.9471"
   preserveAspectRatio="xMidYMid"
   id="svg10"
   sodipodi:docname="lens.svg"
   inkscape:version="1.2.2 (732a01da63, 2022-12-09)"
   inkscape:export-filename="lens.png"
   inkscape:export-xdpi="72"
   inkscape:export-ydpi="72"
   xml:space="preserve"
   xmlns:inkscape="http://www.inkscape.org/namespaces/inkscape"
   xmlns:sodipodi="http://sodipodi.sourceforge.net/DTD/sodipodi-0.dtd"
   xmlns="http://www.w3.org/2000/svg"
   xmlns:svg="http://www.w3.org/2000/svg"><defs
     id="defs14"><rect
       x="-394.93173"
       y="2825.2808"
       width="6002.0942"
       height="2643.0044"
       id="rect400" /><rect
       x="1884.2303"
       y="975.87177"
       width="411.2164"
       height="233.2272"
       id="rect360" /><rect
       x="-394.93173"
       y="2825.2808"
       width="6002.0942"
       height="2643.0044"
       id="rect315" /><rect
       x="-394.93173"
       y="2825.2808"
       width="6002.0942"
       height="2643.0044"
       id="rect327" /><clipPath
       id="a"><path
         d="m 159,0.79 h 25 V 69 h -25 z m 0,0"
         id="path418" /></clipPath><clipPath
       id="b"><path
         d="m 183,9 h 35.371 V 69 H 183 Z m 0,0"
         id="path421" /></clipPath><clipPath
       id="c"><path
         d="M 0,0.79 H 92 V 92 H 0 Z m 0,0"
         id="path424" /></clipPath></defs><sodipodi:namedview
     id="namedview12"
     pagecolor="#ffffff"
     bordercolor="#999999"
     borderopacity="1"
     inkscape:showpageshadow="0"
     inkscape:pageopacity="0"
     inkscape:pagecheckerboard="0"
     inkscape:deskcolor="#d1d1d1"
     inkscape:document-units="pt"
     showgrid="false"
     inkscape:zoom="0.46083916"
     inkscape:cx="2500.8725"
     inkscape:cy="1640.4856"
     inkscape:window-width="3840"
     inkscape:window-height="2126"
     inkscape:window-x="-11"
     inkscape:window-y="-11"
     inkscape:window-maximized="1"
     inkscape:current-layer="svg10" /><metadata
     id="metadata2">
Created by potrace 1.12, written by Peter Selinger 2001-2015
</metadata><text
     xml:space="preserve"
     transform="matrix(0.70511448,0,0,0.70511448,322.06286,-447.16041)"
     id="text313"
     style="font-style:normal;font-weight:normal;font-size:1000px;line-height:1.25;font-family:sans-serif;white-space:pre;shape-inside:url(#rect315);display:inline;fill:#1c53d5;fill-opacity:1;stroke:none"><tspan
       x="-394.93164"
       y="3765.4986"
       id="tspan3724"><tspan
         style="font-family:'Earth Orbiter Bold';-inkscape-font-specification:'Earth Orbiter Bold, '"
         id="tspan3722">lens</tspan></tspan></text><g
     id="g478"
     transform="matrix(-3.0894822,0,0,3.0894822,2035.8654,292.04097)" /><g
     id="g480"
     transform="matrix(-3.0894822,0,0,3.0894822,2035.8654,292.04097)" /><g
     id="g482"
     transform="matrix(-3.0894822,0,0,3.0894822,2035.8654,292.04097)" /><g
     id="g484"
     transform="matrix(-3.0894822,0,0,3.0894822,2035.8654,292.04097)" /><g
     id="g486"
     transform="matrix(-3.0894822,0,0,3.0894822,2035.8654,292.04097)" /><g
     id="g488"
     transform="matrix(-3.0894822,0,0,3.0894822,2035.8654,292.04097)" /><g
     id="g490"
     transform="matrix(-3.0894822,0,0,3.0894822,2035.8654,292.04097)" /><g
     id="g492"
     transform="matrix(-3.0894822,0,0,3.0894822,2035.8654,292.04097)" /><g
     id="g494"
     transform="matrix(-3.0894822,0,0,3.0894822,2035.8654,292.04097)" /><g
     id="g496"
     transform="matrix(-3.0894822,0,0,3.0894822,2035.8654,292.04097)" /><g
     id="g498"
     transform="matrix(-3.0894822,0,0,3.0894822,2035.8654,292.04097)" /><g
     id="g500"
     transform="matrix(-3.0894822,0,0,3.0894822,2035.8654,292.04097)" /><g
     id="g502"
     transform="matrix(-3.0894822,0,0,3.0894822,2035.8654,292.04097)" /><g
     id="g504"
     transform="matrix(-3.0894822,0,0,3.0894822,2035.8654,292.04097)" /><g
     id="g506"
     transform="matrix(-3.0894822,0,0,3.0894822,2035.8654,292.04097)" /><path
     clip-rule="evenodd"
     d="m 1249.6297,877.04281 c 96.2249,-11.3635 198.5681,-46.3505 198.5681,-212.55292 0,-47.23955 -16.6351,-85.73716 -43.7288,-115.48335 4.3708,-11.36142 18.3539,-54.23 -5.2738,-113.70463 0,0 -34.9887,-11.37684 -117.1998,43.72683 -34.989,-9.61174 -73.4731,-15.74574 -109.3358,-15.74574 -36.752,0 -75.2496,6.134 -109.3647,15.74574 -83.10216,-55.10367 -118.08916,-43.72683 -118.08916,-43.72683 -23.612,59.47463 -9.6118,102.34321 -5.2429,113.70463 -27.1226,29.74412 -43.7423,68.2438 -43.7423,115.48335 0,166.20242 102.3432,201.18942 198.56816,212.55292 -12.2371,10.5165 -23.6122,30.6178 -27.9831,58.6143 -24.5013,10.4896 -88.36056,30.6181 -126.84276,-35.8628 0,0 -22.7516,-41.1055 -65.6068,-43.7267 0,0 -42.8686,-0.874 -3.497,26.218 0,0 28.8568,13.1399 48.1132,62.9853 0,0 26.2335,83.11599 146.94416,56.86499 v 74.347 c 0,11.3923 -8.738,24.5013 -30.6026,21.006 -171.45886,-56.867 -294.79266,-219.57419 -294.79266,-410.26076 0,-238.81541 193.3098,-432.12319 432.13846,-432.12319 237.9279,0 432.1251,193.30984 431.2514,432.12319 0,190.68657 -123.3475,352.52016 -294.7948,410.26076 -21.8781,4.3711 -30.6181,-8.738 -30.6181,-21.006 V 956.66141 c 0,-40.2628 -13.1379,-66.4808 -28.8684,-79.6186 z m 416.3929,-188.92736 c 0,-272.94388 -221.32,-494.25023 -493.363,-494.25023 -272.94376,0 -494.2501,221.30635 -494.2501,494.25023 0,272.04296 221.30634,493.36305 494.2501,493.36305 272.043,0 493.363,-221.32009 493.363,-493.36305 z"
     fill="#0d2636"
     fill-rule="evenodd"
     id="path2733"
     style="fill:#f02e5d;fill-opacity:1;stroke-width:1.92893" /><path
     d="m 233.02502,1492.7077 c -36.20873,36.1778 -36.20873,94.878 0,131.0558 18.07348,18.1044 41.8007,27.1566 65.52792,27.1566 23.72722,0 47.45445,-9.0522 65.52792,-27.1566 l 340.33736,-336.8771 -130.49973,-130.5307 -0.71058,-0.7105 z"
     style="fill:#f02e5d;fill-opacity:1;stroke-width:3.08948"
     id="path462" /><path
     d="m 573.20791,1155.6143 v 0.031 l 0.71058,0.7105 130.49973,130.5307 144.06252,-142.6414 1.5448,-2.2245 c -49.957,-35.1583 -93.8585,-78.3492 -129.851,-127.6883 l -4.5415,0.1545 z"
     style="fill:#f02e5d;fill-opacity:1;stroke-width:3.08948"
     id="path464" /><path
     d="M 211.27816,1470.7631 550.6207,1134.5347 c 0.27188,-0.2935 0.55302,-0.5808 0.84034,-0.865 L 678.2812,1008.005 C 615.72536,912.50291 582.7853,802.15589 582.7853,687.00162 582.7853,363.32584 846.11424,100 1169.7869,100 c 323.6727,0 587.0016,263.32584 587.0016,587.00162 0,323.67578 -263.3289,587.00158 -587.0016,587.00158 -112.7599,0 -221.28726,-31.7351 -315.54426,-91.9831 l -123.2085,121.9944 c -1.1895,1.866 -2.5798,3.6455 -4.211,5.2768 -1.6992,1.6992 -3.5591,3.1327 -5.5116,4.3531 l -335.36333,331.9494 c -23.3225,23.3565 -54.35944,36.2211 -87.39527,36.2211 -33.03583,0 -64.07277,-12.8646 -87.36438,-36.1964 -23.35339,-23.3349 -36.21491,-54.3656 -36.21491,-87.3829 0,-33.0173 12.86152,-64.0481 36.30451,-87.4725 z M 704.52944,1243.3 l 98.7368,-97.7636 c -32.35,-25.8683 -61.799,-55.0391 -88.04719,-87.145 l -98.23627,97.3403 z M 1694.9989,687.00162 c 0,-289.60188 -235.6101,-525.21198 -525.212,-525.21198 -289.60186,0 -525.21195,235.6101 -525.21195,525.21198 0,111.97519 34.77521,218.87129 100.55959,309.12429 34.1202,46.77169 75.3926,87.35509 122.674,120.63199 v 0 c 88.7207,62.4477 193.14206,95.4557 301.97836,95.4557 289.6019,0 525.212,-235.61009 525.212,-525.21198 z M 254.88929,1601.9394 c 11.64426,11.6628 27.15037,18.0858 43.66365,18.0858 16.51328,0 32.0194,-6.423 43.79341,-18.2186 l 318.26919,-315.0345 -87.50958,-87.5313 -318.24448,315.3219 c -11.66897,11.6628 -18.09818,27.172 -18.09818,43.6729 0,16.5009 6.42921,32.0101 18.12599,43.7038 z"
     id="path476"
     style="stroke-width:3.08948" /><circle
     style="fill:none;fill-opacity:1;stroke:#000000;stroke-width:84.8337;stroke-linecap:round;stroke-linejoin:round;stroke-dasharray:none;stroke-opacity:1;paint-order:stroke fill markers"
     id="path620"
     cx="1172.5691"
     cy="687.47418"
     r="530.21643" /></svg>
